<?xml version="1.0" standalone="no"?><!DOCTYPE svg PUBLIC "-//W3C//DTD SVG 1.1//EN" "http://www.w3.org/Graphics/SVG/1.1/DTD/svg11.dtd"><svg t="1722432911282" class="icon" viewBox="0 0 1024 1024" version="1.1" xmlns="http://www.w3.org/2000/svg" p-id="11858" xmlns:xlink="http://www.w3.org/1999/xlink" width="200" height="200"><path d="M442.24 0h0.085333zc-0.298667 0.170667-0.085333 2.816 0.768 6.101333 8.106667 33.578667 16.853333 71.253333 16.853333 72.533334 0 0.981333-10.325333 10.538667-22.954666 21.333333-12.629333 10.794667-26.794667 23.552-31.36 28.288l-7.466667 7.765333h-10.538667c-65.28-0.170667-130.56 0.597333-195.754666-0.426666-24.661333-0.426667-36.48 17.365333-36.48 36.266666 0.298667 272.384 0.298667 544.682667 0.298666 817.066667 0 23.125333 12.074667 35.072 35.328 35.072h642.56c23.125333 0 35.2-11.946667 35.2-35.2V171.733333c0-23.893333-11.776-35.754667-35.413333-35.754666-69.632 0-139.264 0.085333-208.896-0.256h-8.874667l-23.296-22.698667c-40.106667-39.04-69.12-62.08-117.845333-93.013333A732.586667 732.586667 0 0 0 442.282667 0z m40.746667 57.6c1.28-0.170667 9.898667 5.333333 20.053333 12.8a724.864 724.864 0 0 1 106.538667 98.56h0.085333c19.84 22.186667 38.528 45.098667 54.101333 68.266667 15.232 22.613333 39.893333 65.962667 39.893334 69.973333 0 1.28 0.725333 2.218667 1.578666 2.218667 0.853333 0 3.541333-7.168 5.973334-15.957334 5.418667-19.2 5.376-19.114667 16.554666 17.194667 16.213333 52.821333 21.76 89.856 21.76 144.213333 0 42.325333-2.005333 59.818667-9.813333 90.453334-2.261333 8.746667-2.816 13.568-1.493333 13.568 1.109333 0 7.850667-1.621333 15.018666-3.669334 7.125333-2.048 13.226667-3.413333 13.568-3.114666 1.194667 1.152-16.810667 32.128-29.525333 50.773333-53.162667 77.994667-115.968 124.16-185.941333 136.789333-39.125333 7.04-75.221333 4.266667-111.36-8.448-19.2-6.741333-34.688-14.848-59.648-31.274666-53.333333-34.986667-94.122667-97.792-114.346667-175.786667-9.130667-34.986667-16.128-88.576-16.128-123.52V384l11.818667 17.706667c17.194667 25.728 37.973333 51.925333 39.68 50.005333 0.256-0.426667-4.437333-9.557333-10.538667-20.394667-12.885333-22.869333-12.928-22.613333-3.413333-59.306666 15.445333-59.989333 47.445333-122.112 89.941333-174.848 6.101333-7.594667 16.853333-18.346667 26.197333-28.288 25.728-27.477333 55.04-56.32 57.258667-54.186667 0.426667 0.426667-0.426667 5.376-1.92 10.965333-5.717333 20.992-14.08 56.832-13.354667 57.514667 0.170667 0.170667 5.376-9.216 8.405334-14.336 3.072-5.290667 4.096-6.4 8.661333-14.677333 8.96-16.213333 16.64-29.866667 16.853333-30.122667 0.256-0.298667 5.632 4.778667 11.946667 11.264 9.472 9.6 11.52 10.922667 10.666667 7.125333-0.597333-2.56-5.248-22.272-10.453334-43.861333-5.12-21.589333-9.173333-40.021333-8.832-40.96 0-0.085333 0.085333-0.128 0.170667-0.128z m174.08 110.506667h158.293333c15.872 0 20.906667 4.864 20.906667 20.565333v593.066667c0 15.36-5.12 19.498667-23.808 19.498666H273.92c-22.186667 0-44.373333 0.085333-66.56 0-14.08-0.128-19.328-5.376-19.328-19.114666V188.16c0-14.634667 5.12-19.925333 19.626667-19.925333 49.92-0.085333 99.925333 0 149.888 0 2.048 0 4.138667 0.213333 4.949333 0.256h4.266667l-0.298667 0.256-5.888 7.04c-40.448 48.768-75.52 112.213333-92.032 166.912-2.261333 7.509333-4.352 13.653333-4.693333 13.653333-0.256 0-8.832-12.373333-18.901334-27.306667-10.112-15.018667-19.114667-27.818667-20.053333-28.373333-3.157333-1.962667-0.426667 139.818667 3.2 166.272 13.013333 94.805333 44.928 167.509333 97.792 222.464 26.453333 27.562667 72.746667 55.893333 112.341333 68.778667 58.026667 18.944 122.453333 14.08 182.186667-13.653334 58.453333-27.221333 116.181333-85.034667 158.122667-158.421333 15.616-27.392 39.850667-74.325333 38.826666-75.349333-0.426667-0.426667-10.88 2.133333-23.125333 5.632a255.573333 255.573333 0 0 1-22.741333 5.973333 60.885333 60.885333 0 0 1 1.408-12.458667c3.84-22.784 4.394667-71.765333 1.152-102.229333-5.717333-53.845333-14.677333-89.173333-39.68-156.288-19.925333-53.674667-20.181333-54.357333-21.333334-54.357333-0.597333 0-3.925333 10.154667-7.381333 22.528-3.498667 12.373333-6.570667 22.442667-6.826667 22.442666a35.456 35.456 0 0 1-4.864-7.04 899.84 899.84 0 0 0-41.472-57.173333l-7.424-8.96h-0.170666 2.005333c3.541333-0.213333 6.741333-0.554667 9.984-0.554667z m-153.6 30.293333l-1.365334 9.984c-1.152 8.533333-8.746667 36.693333-13.226666 49.365333-2.048 5.632 11.093333-7.253333 18.474666-18.176 3.413333-4.906667 6.485333-8.96 7.04-8.96 0.597333 0 7.253333 6.272 14.933334 13.952 7.68 7.68 14.208 13.653333 14.506666 13.354667 1.28-1.28-8.96-21.973333-16.085333-32.426667a154.624 154.624 0 0 0-15.786667-18.986666zM397.653333 280.917333l-5.632 5.333334c-7.594667 7.253333-20.693333 27.306667-26.88 40.96-6.4 14.165333-14.08 36.266667-13.994666 40.106666 0 1.706667 3.072-2.56 6.741333-9.472 6.613333-12.373333 25.728-37.205333 28.586667-37.205333 0.853333 0 2.56 2.261333 3.84 5.12 2.56 5.632 15.36 23.552 16.128 22.613333a80 80 0 0 0-1.92-13.653333c-1.28-7.253333-2.986667-19.84-3.626667-28.16a295.68 295.68 0 0 0-2.261333-20.309333z m232.661334 0.341334c-0.853333 0-1.621333 4.821333-1.706667 10.752 0 10.24-4.138667 42.752-6.698667 52.992-1.109333 4.565333-0.981333 4.565333 3.754667-0.853334 2.688-3.157333 7.082667-9.386667 9.813333-14.08 2.773333-4.693333 5.248-8.832 5.632-9.258666 2.304-2.688 30.293333 34.816 33.536 44.885333 0.725333 2.218667 1.706667 3.541333 2.261334 2.986667 1.28-1.28-8.021333-29.312-13.781334-41.6-8.405333-17.92-28.330667-45.824-32.768-45.824z m-112.213334 46.933333h0.085334zc-1.706667 0.256-11.690667 21.546667-14.848 31.829333-3.541333 11.52-7.765333 41.728-7.68 55.296v13.098667l4.608-17.493333c4.053333-15.701333 10.666667-32.341333 15.573334-39.509334 1.493333-2.133333 3.712-0.981333 11.690666 6.186667 5.418667 4.864 11.392 9.685333 13.226667 10.666667 3.626667 1.92 4.693333 0 1.792-3.072-2.432-2.56-16.725333-36.48-20.053333-47.658667-1.493333-5.12-3.413333-9.258667-4.266667-9.386667zM407.893333 465.792c-30.933333 0.853333-58.538667 25.301333-67.114666 61.653333-3.754667 15.957333-3.498667 28.16 0.938666 45.312 8.533333 33.792 27.946667 56.405333 58.026667 67.84 4.181333 1.621333 12.8 2.474667 23.466667 2.133334 14.506667-0.298667 18.474667-1.152 27.733333-5.888 21.76-11.008 37.034667-34.133333 41.173333-62.421334 1.834667-12.714667 1.706667-17.493333-0.938666-30.72-7.978667-40.533333-34.645333-69.802667-69.973334-76.8-4.437333-0.853333-8.96-1.28-13.354666-1.109333z m217.045334 0c-1.28 0-2.56 0.085333-3.84 0.170667-36.138667 2.474667-70.4 36.608-77.141334 80.298666-6.101333 39.68 14.08 80.64 45.781334 93.141334 14.677333 5.76 39.594667 4.778667 54.485333-2.133334 34.730667-16.213333 57.813333-61.098667 52.138667-101.248-5.12-36.437333-27.989333-62.890667-59.818667-69.12a59.434667 59.434667 0 0 0-11.648-1.024z m-21.973334 87.893333c16.213333 0.512 26.112 20.181333 15.616 33.792-4.096 5.12-14.421333 8.533333-21.76 6.826667-21.76-4.693333-19.456-37.546667 2.816-40.448a21.76 21.76 0 0 1 3.328-0.170667z m-169.301333 0.426667c8.533333 0 10.24 0.853333 15.104 6.229333 8.192 9.173333 7.04 25.6-2.133333 30.464-8.106667 4.266667-14.165333 5.12-19.925334 2.773334-14.08-5.973333-18.090667-22.186667-8.192-33.28 4.821333-5.376 6.613333-6.144 15.189334-6.144zM369.066667 833.834667c10.666667 0 21.248 0.085333 31.829333 0.341333 20.906667 0.426667 29.141333 9.386667 29.141333 30.378667v49.578666h-0.128v48.64c-0.128 17.749333-8.192 27.008-25.941333 27.562667a1100.8 1100.8 0 0 1-69.205333 0c-17.749333-0.64-25.728-9.728-25.941334-27.648-0.213333-33.066667-0.256-66.133333 0-99.157333 0.170667-19.882667 8.789333-28.842667 28.416-29.312 10.666667-0.213333 21.205333-0.341333 31.786667-0.341334z m265.813333 0c12.373333 0.085333 24.618667 0.426667 36.906667 1.109333 14.848 0.853333 22.613333 9.813333 22.784 24.746667 0.554667 34.858667 0.682667 69.802667 0.170666 104.704-0.213333 16.64-8.96 25.173333-25.941333 25.770666-23.04 0.853333-46.08 0.853333-69.12 0-18.261333-0.64-25.856-9.813333-26.026667-28.416v-49.493333h-0.128c0-16.64-0.170667-33.066667 0-49.664 0.170667-17.834667 7.082667-27.136 24.448-27.989333 12.288-0.554667 24.576-0.853333 36.906667-0.725334z m-117.077333 0.085333c12.373333 0 24.874667 0.128 37.546666 0.128v26.965333h-61.952c-13.226667 0-14.208 0.981333-14.208 14.506667 0 25.6 0.256 51.2-0.128 76.8-0.128 8.533333 3.2 11.733333 11.52 11.605333 18.090667-0.298667 36.138667 0 54.272 0h11.392l0.128 25.728c-2.133333 0.298667-4.181333 0.853333-6.229333 0.853334-22.485333 0.085333-44.970667 0.213333-67.413333 0-22.016-0.213333-30.549333-8.96-30.549334-30.805334v-95.573333c0-20.309333 8.405333-29.525333 28.586667-29.994667 12.373333-0.256 24.618667-0.298667 37.034667-0.256z m268.373333 0.256c15.274667 0 30.72 0.213333 46.336 0.213333v26.538667h-76.544c-11.093333 0-12.202667 1.152-12.202667 12.458667 0.256 31.018667-4.352 27.050667 27.306667 27.306666 12.714667 0.128 25.6-0.128 38.314667 0.128 18.474667 0.426667 26.965333 8.789333 27.306666 27.008 0.170667 11.861333 0.213333 23.765333-0.170666 35.584-0.554667 16.341333-8.234667 25.898667-24.405334 26.453334-31.402667 0.981333-62.890667 0.256-94.976 0.256v-26.282667h10.410667c23.765333 0 47.488-0.128 71.168 0.085333 7.936 0.085333 11.605333-3.072 11.264-11.093333a229.546667 229.546667 0 0 1 0-18.773333c0.298667-8.021333-3.328-11.008-11.349333-10.837334-17.066667 0.426667-34.304 0.256-51.456 0.085334-22.741333-0.256-30.805333-8.661333-30.805334-31.445334 0-10.325333-0.128-20.608 0.170667-30.890666 0.512-16.512 8.106667-25.941333 24.234667-26.453334 15.061333-0.426667 30.165333-0.426667 45.44-0.426666z m-547.84 0.853333c17.493333-0.128 34.986667 0.256 52.778667 0.256v25.002667c-3.413333 0.213333-6.656 0.597333-9.898667 0.597333-18.688 0.085333-37.418667 0.213333-56.106667 0-7.466667-0.085333-10.666667 3.072-10.666666 10.666667 0.256 27.221333 0.341333 54.357333 0 81.493333 0 8.362667 3.541333 10.965333 11.306666 10.922667 18.688-0.213333 37.418667-0.085333 56.149334-0.085333h9.514666v25.941333c-27.733333 0-54.784 0.853333-81.792-0.341333-14.592-0.597333-21.76-9.685333-21.930666-24.234667-0.426667-35.242667-0.426667-70.528 0-105.813333 0.128-13.568 6.698667-23.210667 19.114666-23.765334 10.666667-0.597333 21.76-0.426667 31.445334-0.682666z m418.389333 25.898667c-15.232 0.298667-30.506667 0.213333-45.738666 0-7.552 0-10.581333 3.413333-10.496 10.88 0.170667 27.434667 0.170667 54.826667 0 82.218667 0 6.826667 2.986667 9.813333 9.386666 9.813333 16.213333 0.128 32.426667 0 48.554667 0 7.253333 0 9.728-3.541333 9.557333-10.581333-0.341333-13.653333 0-27.392-0.213333-41.088 0-13.482667-0.298667-26.88 0-40.277334h0.170667c0.213333-8.106667-3.285333-11.093333-11.178667-11.008z m-310.698666 0.128c-7.168-0.085333-10.112 3.242667-10.026667 10.24 0.213333 13.738667 0 27.477333 0 41.173333 0 13.653333 0.256 27.306667-0.170667 41.045334h0.085334c-0.170667 7.253333 2.858667 10.453333 9.813333 10.453333H393.386667c6.741333 0 10.026667-2.901333 9.984-10.24-0.256-27.392-0.170667-54.741333 0-82.176 0-6.826667-2.389333-10.581333-9.728-10.496-15.914667 0.213333-31.786667 0.128-47.658667 0z" p-id="11859"></path></svg>