<?xml version="1.0" standalone="no"?><!DOCTYPE svg PUBLIC "-//W3C//DTD SVG 1.1//EN" "http://www.w3.org/Graphics/SVG/1.1/DTD/svg11.dtd"><svg t="1722783368920" class="icon" viewBox="0 0 1027 1024" version="1.1" xmlns="http://www.w3.org/2000/svg" p-id="39024" xmlns:xlink="http://www.w3.org/1999/xlink" width="200.5859375" height="200"><path d="M988.05333333 989.86666667H34.66666667V36.26666667h953.38666666v953.6zM587.94666667 576.74666667c-0.74666667-2.98666667-0.53333333-4.8 2.13333333-6.61333334 46.4-30.61333333 92.8-61.33333333 139.2-91.94666666 2.88-1.92 3.94666667-3.73333333 3.94666667-7.14666667-0.10666667-29.97333333-0.10666667-59.84-0.10666667-89.81333333 0-1.6 0.42666667-3.30666667-0.53333333-4.90666667H291.09333333v100.37333333h287.46666667c-2.24 1.6-3.41333333 2.34666667-4.48 2.98666667-32.32 20.48-64.64 40.96-96.96 61.22666667-3.2 2.02666667-4.69333333 4.05333333-4.48 7.89333333 0.32 9.17333333 0.10666667 18.24 0.10666667 27.94666667H130.56v103.57333333h342.18666667v6.50666667c-0.32 22.08 0.85333333 44.16-0.53333334 66.24-1.28 19.09333333-10.98666667 30.18666667-29.44 35.2-8.10666667 2.13333333-16.42666667 3.30666667-24.74666666 3.62666666-25.28 0.96-50.45333333 0.10666667-75.62666667-1.28-11.09333333-0.64-22.18666667-1.28-33.92-2.02666666 0.74666667 2.45333333 1.28 4.37333333 1.81333333 6.18666666 10.13333333 32.53333333 18.56 65.49333333 24.42666667 99.09333334 0.64 3.94666667 2.02666667 5.12 5.97333333 5.12 41.81333333-0.10666667 83.62666667 0 125.44-0.10666667 21.33333333-0.10666667 42.34666667-2.34666667 62.4-10.34666667 22.50666667-9.06666667 39.14666667-24.42666667 48.96-46.82666666 8-18.45333333 9.92-37.97333333 10.13333334-57.81333334 0.21333333-32.64 0-65.28 0.10666666-97.81333333 0-1.81333333-0.42666667-3.62666667 0.74666667-5.97333333h303.57333333v-103.36H587.94666667zM257.49333333 416.53333333v-103.04h511.14666667v101.33333334h109.33333333V212.90666667H588.69333333c-8.85333333-28.8-17.6-57.17333333-26.34666666-85.54666667-44.48 8.42666667-88.42666667 16.74666667-132.48 25.06666667 7.14666667 20.37333333 14.08 40.21333333 21.12 60.58666666H147.84v203.52h109.65333333z" fill="#FDD500" p-id="39025"></path><path d="M587.94666667 576.74666667h303.89333333v103.36H588.26666667c-1.06666667 2.34666667-0.74666667 4.16-0.74666667 5.97333333 0 32.64 0.10666667 65.28-0.10666667 97.81333333-0.10666667 19.84-2.02666667 39.36-10.13333333 57.81333334-9.81333333 22.50666667-26.34666667 37.76-48.96 46.82666666-20.05333333 8.10666667-41.06666667 10.34666667-62.4 10.34666667-41.81333333 0.10666667-83.62666667 0-125.44 0.10666667-4.05333333 0-5.33333333-1.17333333-5.97333333-5.12-5.86666667-33.6-14.29333333-66.56-24.42666667-99.09333334-0.53333333-1.81333333-1.06666667-3.73333333-1.81333333-6.18666666 11.73333333 0.74666667 22.82666667 1.38666667 33.92 2.02666666 25.17333333 1.38666667 50.45333333 2.24 75.62666666 1.28 8.32-0.32 16.64-1.49333333 24.74666667-3.62666666 18.45333333-5.01333333 28.16-16.10666667 29.44-35.2 1.49333333-22.08 0.32-44.16 0.53333333-66.24v-6.50666667H130.34666667v-103.57333333H472.53333333c0-9.70666667 0.21333333-18.77333333-0.10666666-27.94666667-0.10666667-3.94666667 1.28-5.97333333 4.48-7.89333333 32.42666667-20.37333333 64.64-40.85333333 96.96-61.22666667 1.06666667-0.74666667 2.13333333-1.49333333 4.48-2.98666667H290.88v-100.37333333h441.49333333c0.96 1.6 0.53333333 3.30666667 0.53333334 4.90666667 0 29.97333333 0 59.84 0.10666666 89.81333333 0 3.41333333-1.06666667 5.22666667-3.94666666 7.14666667-46.50666667 30.61333333-92.8 61.33333333-139.2 91.94666666-2.45333333 1.70666667-2.66666667 3.62666667-1.92 6.61333334z" p-id="39026"></path><path d="M257.49333333 416.53333333H147.94666667V213.01333333h303.14666666c-7.14666667-20.48-14.08-40.21333333-21.12-60.58666666 44.05333333-8.32 88-16.64 132.48-25.06666667 8.74666667 28.37333333 17.49333333 56.74666667 26.34666667 85.54666667h289.28v201.92H768.74666667v-101.33333334H257.6c-0.10666667 34.24-0.10666667 68.37333333-0.10666667 103.04z" p-id="39027"></path></svg>