<?xml version="1.0" standalone="no"?><!DOCTYPE svg PUBLIC "-//W3C//DTD SVG 1.1//EN" "http://www.w3.org/Graphics/SVG/1.1/DTD/svg11.dtd"><svg t="1722432725592" class="icon" viewBox="0 0 1024 1024" version="1.1" xmlns="http://www.w3.org/2000/svg" p-id="7959" xmlns:xlink="http://www.w3.org/1999/xlink" width="200" height="200"><path d="M914.288 512h-256v73.12h175.52c-25.6 109.712-106.08 201.12-212.112 237.712L201.12 402.288c43.888-128 168.224-219.424 310.88-219.424 109.712 0 208.48 54.88 270.624 138.976l54.88-47.52C764.32 175.52 647.312 109.712 512 109.712c-190.176 0-351.088 135.312-391.312 314.512l482.72 482.72c175.52-43.888 310.88-204.8 310.88-394.976z m-804.576 3.68c0 102.4 40.224 201.12 117.024 277.92s179.2 117.024 277.92 117.024z" fill="#FFFFFF" p-id="7960"></path><path d="M512 0C230.4 0 0 230.4 0 512s230.4 512 512 512 512-230.4 512-512S793.6 0 512 0zM226.72 797.28c-76.8-76.8-117.024-179.2-117.024-277.92L508.32 914.288c-102.4-3.68-204.8-40.224-281.6-117.024z m373.024 106.08L120.688 424.224C160.912 245.024 321.824 109.712 512 109.712c135.312 0 252.32 65.824 325.488 164.576l-54.88 47.52C720.48 237.712 621.712 182.88 512 182.88c-142.624 0-263.312 91.424-310.88 219.424L621.712 822.88c106.08-36.576 186.512-128 212.112-237.712h-175.52V512h256c0 190.176-135.312 351.088-314.512 391.312z" fill="#663399" p-id="7961"></path></svg>