<?xml version="1.0" standalone="no"?><!DOCTYPE svg PUBLIC "-//W3C//DTD SVG 1.1//EN" "http://www.w3.org/Graphics/SVG/1.1/DTD/svg11.dtd"><svg t="1722783114695" class="icon" viewBox="0 0 1024 1024" version="1.1" xmlns="http://www.w3.org/2000/svg" p-id="35663" xmlns:xlink="http://www.w3.org/1999/xlink" width="200" height="200"><path d="M0 0m292.571429 0l438.857142 0q292.571429 0 292.571429 292.571429l0 438.857142q0 292.571429-292.571429 292.571429l-438.857142 0q-292.571429 0-292.571429-292.571429l0-438.857142q0-292.571429 292.571429-292.571429Z" fill="#667085" p-id="35664"></path><path d="M857.234286 321.609143c-260.827429 226.084571-415.085714 332.288-704.585143 411.062857l-7.387429-5.046857C489.472 458.24 607.085714 182.857143 607.085714 182.857143a1914.514286 1914.514286 0 0 1 307.2 126.390857l-9.947428 14.848-47.104-2.486857z" fill="#FFFFFF" opacity=".6" p-id="35665"></path><path d="M607.232 182.857143S492.982857 447.926857 109.714286 628.077714l7.460571 4.900572c55.954286-4.388571 111.616-12.653714 166.473143-24.502857C521.728 382.683429 607.232 182.857143 607.232 182.857143z" fill="#FFFFFF" opacity=".4" p-id="35666"></path><path d="M857.234286 321.609143c-212.992 255.122286-369.005714 379.026286-651.410286 515.218286l-7.387429-4.973715A2582.820571 2582.820571 0 0 0 606.939429 182.857143a1914.368 1914.368 0 0 1 307.2 126.390857l-9.947429 14.848-46.884571-2.486857z" fill="#FFFFFF" p-id="35667"></path></svg>