<svg xmlns="http://www.w3.org/2000/svg" xmlns:xlink="http://www.w3.org/1999/xlink" id="图层_1" data-name="图层 1" width="1440" height="400" viewBox="0 0 1440 400">
  <defs>
    <style>
      .cls-5 {
        fill: #ffa800;
      }
    </style>
    <clipPath id="clip-path">
      <circle class="cls-1" cx="435.33" cy="569.98" r="50" transform="translate(-275.53 474.77) rotate(-45)"/>
    </clipPath>
  </defs>
  <title>Chinese web icon</title>
  <g>
    <circle class="cls-4" cx="15" cy="15" r="13"/>
    <path class="cls-5" d="M15,0A15,15,0,1,0,30,15,15,15,0,0,0,15,0Zm2.67,23.5A15.26,15.26,0,0,1,16,25.65a4.41,4.41,0,0,1-3.67,1.55,2.63,2.63,0,0,1-2.72-2.89,11.13,11.13,0,0,1,.82-3.08l2.63-6.71a4.84,4.84,0,0,0,.4-1.24.57.57,0,0,0-.13-.4.46.46,0,0,0-.33-.2,2.36,2.36,0,0,0-1.43.77,8.84,8.84,0,0,0-1.23,1.3c-.11.15-.33.51-.67.38s-.2-.32,0-.81a10.33,10.33,0,0,1,2.17-2.81,4.49,4.49,0,0,1,3.32-1.21,2.85,2.85,0,0,1,1.84.74,2.09,2.09,0,0,1,.64,1.72A7,7,0,0,1,17.18,15l-3.17,8a4.57,4.57,0,0,0-.36,1.34.76.76,0,0,0,.14.47.45.45,0,0,0,.34.24,1.5,1.5,0,0,0,1.1-.56,9.86,9.86,0,0,0,1.29-1.82.69.69,0,0,1,.63-.36A.8.8,0,0,1,17.68,23.5ZM19,7.31a2.51,2.51,0,0,1-3.57,0,2.48,2.48,0,0,1-.73-1.8,2.55,2.55,0,0,1,3.82-2.16,2.54,2.54,0,0,1,.9.89,2.44,2.44,0,0,1,.33,1.27A2.45,2.45,0,0,1,19,7.31Z"/>
  </g>
</svg>