<?xml version="1.0" standalone="no"?><!DOCTYPE svg PUBLIC "-//W3C//DTD SVG 1.1//EN" "http://www.w3.org/Graphics/SVG/1.1/DTD/svg11.dtd"><svg t="1722783803406" class="icon" viewBox="0 0 1024 1024" version="1.1" xmlns="http://www.w3.org/2000/svg" p-id="4286" xmlns:xlink="http://www.w3.org/1999/xlink" width="200" height="200"><path d="M95.622945 589.452057c-1.806251 125.245467 49.744161 209.525153 147.823608 261.617441 175.712129 93.347068 354.53101 93.599944 531.83264 3.612503 111.770832-56.824667 165.416496-158.950116 152.230861-283.870458-12.535384-117.189586 64.266422-256.487688 48.371411-445.529951-2.095252-25.034643-4.913004-26.94927-28.141396-17.484513-128.894094 52.778664-209.236153 129.544345-272.74395 142.549354-129.761095 26.299019-314.28773 30.019897-424.10781-47.251534a875.706766 875.706766 0 0 0-177.482255-96.128696c-17.376138-7.04438-23.409017-2.564877-25.070769 15.895012C30.308897 328.737741 120.910464 468.108093 95.622945 589.452057z m679.150497-310.024977c147.353983-105.159952 168.595498-124.956467 110.614831 81.425809-3.215127 11.379383-7.911381 18.676639-19.363014 6.75538-61.990545-64.447047-121.849714-66.253299-91.324067-88.181189zM273.03295 545.4879c0-58.450293 28.394271-91.468567 87.133564-99.127073 54.512665-7.225005 104.762577 0.4335 139.334227 49.671911 27.635645 39.159529 29.225146-79.908559 187.850137-45.914908 38.184153 8.344881 61.195795 34.13815 62.604671 73.333803 5.635504 163.21287 11.993509 221.916038-67.120299 263.351443-18.821139 9.862132-25.034643 5.960629-25.287518-15.714386-2.709377-210.789529 16.942637-273.17745-46.962535-273.610951-68.63755-0.50575-49.852537 75.862556-51.586538 250.454809-0.722501 68.4208-92.913568 67.806675-93.527693-1.192126-0.939251-111.626332 0.758626-190.59564-1.192126-206.526776-6.647005-54.946165-75.573555-56.355041-93.058068-9.753757-6.213505 16.689762-3.612503 16.978762-4.154378 235.318422 0 28.574896-7.225005 32.512524-31.790023 17.809638-76.404431-46.167784-62.424046-103.823326-62.243421-238.100049zM120.043463 200.819022c45.914909 18.965639 86.952939 48.22691 130.050095 79.475058 29.225146 21.169266-30.236647 23.553517-93.925069 89.553941-8.344881 8.597756-13.51076 3.612503-16.111761-5.346504-13.87201-48.841036-27.707895-97.537571-30.886898-148.509984-0.4335-7.152755-1.011501-14.666761 10.873633-15.172511z" fill="#DD5A50" p-id="4287"></path></svg>