<?xml version="1.0" standalone="no"?><!DOCTYPE svg PUBLIC "-//W3C//DTD SVG 1.1//EN" "http://www.w3.org/Graphics/SVG/1.1/DTD/svg11.dtd"><svg t="1722783158300" class="icon" viewBox="0 0 1024 1024" version="1.1" xmlns="http://www.w3.org/2000/svg" p-id="36740" xmlns:xlink="http://www.w3.org/1999/xlink" width="200" height="200"><path d="M0 1.703827h1022.296173v1022.296173H0z" fill="#69d0b0" p-id="36741"></path><path d="M0 0h1022.296173v1022.296173H0z" fill="#69d0b0" p-id="36742" data-spm-anchor-id="a313x.search_index.0.i30.7ca93a81E8mMZt" class=""></path><path d="M515.407654 219.793677C406.722236 219.793677 318.615641 307.900273 318.615641 416.585691S406.722236 613.377704 515.407654 613.377704 712.199667 525.271108 712.199667 416.585691 624.093072 219.793677 515.407654 219.793677z m0 322.623042c-69.49399 0-125.829324-56.337038-125.829325-125.831028s56.335334-125.829324 125.829325-125.829325 125.829324 56.335334 125.829324 125.829325-56.335334 125.831028-125.829324 125.831028z" fill="#ffffff" p-id="36743" data-spm-anchor-id="a313x.search_index.0.i32.7ca93a81E8mMZt" class=""></path><path d="M552.039933 780.986569c0 8.118735-12.299927 14.700619-27.467394 14.700619h-18.384293c-15.169171 0-27.467394-6.581884-27.467394-14.700619V570.62187c0-8.118735 12.296519-14.698915 27.467394-14.698915h18.384293c15.167468 0 27.467394 6.58018 27.467394 14.698915v210.364699z" fill="#ffffff" p-id="36744" data-spm-anchor-id="a313x.search_index.0.i31.7ca93a81E8mMZt" class=""></path></svg>