<?xml version="1.0" standalone="no"?><!DOCTYPE svg PUBLIC "-//W3C//DTD SVG 1.1//EN" "http://www.w3.org/Graphics/SVG/1.1/DTD/svg11.dtd"><svg t="1722432483058" class="icon" viewBox="0 0 1024 1024" version="1.1" xmlns="http://www.w3.org/2000/svg" p-id="4447" xmlns:xlink="http://www.w3.org/1999/xlink" width="200" height="200"><path d="M815.616 853.333333c0-45.397333 0-87.04-6.912-175.744-8.533333-89.173333-54.997333-134.314667-134.4-150.186666 94.08-12.202667 163.712-85.504 163.712-197.845334C837.973333 179.370667 738.986667 85.333333 539.989333 85.333333H170.666667v156.544h332.672c87.936 0 131.925333 37.717333 131.925333 100.010667 0 70.826667-43.946667 97.578667-131.925333 97.578667H170.666667v160h322.901333c69.632 0 107.52 19.498667 113.578667 107.434666a1055.573333 1055.573333 0 0 1 3.498666 118.314667v0.128c-0.170667 9.130667-0.341333 18.133333-0.341333 27.989333h205.312zM170.666667 734.08V853.333333h261.205333v-76.373333c0-16-7.850667-42.88-44.117333-42.88H170.666667z" p-id="4448"></path></svg>