<?xml version="1.0" standalone="no"?><!DOCTYPE svg PUBLIC "-//W3C//DTD SVG 1.1//EN" "http://www.w3.org/Graphics/SVG/1.1/DTD/svg11.dtd"><svg t="1722782244430" class="icon" viewBox="0 0 1024 1024" version="1.1" xmlns="http://www.w3.org/2000/svg" p-id="24820" xmlns:xlink="http://www.w3.org/1999/xlink" width="200" height="200"><path d="M291.498667 256c0-6.869333 0.341333-13.738667 0.981333-20.437333 0.810667-8.832 2.986667-17.109333 4.778667-25.557334l-29.610667-58.752H0l93.098667 162.901334h65.152l89.472 169.813333a278.784 278.784 0 0 1 73.685333-117.12A218.581333 218.581333 0 0 1 291.498667 256z m150.741333 582.954667L512 965.845333l69.845333-126.933333c-22.826667 5.888-46.037333 9.984-69.845333 9.984s-46.976-4.096-69.76-9.941333z m314.154667-687.701334l-30.592 53.674667c2.389333 10.154667 4.778667 20.309333 5.717333 30.976a219.648 219.648 0 0 1-28.885333 130.986667 280.106667 280.106667 0 0 1 73.685333 117.162666l89.472-169.856h65.152L1024 151.253333h-267.605333z m5.034666 361.045334a256 256 0 0 0-88.448-141.226667A197.973333 197.973333 0 0 0 512 58.154667 197.76 197.76 0 0 0 314.154667 256a197.12 197.12 0 0 0 36.906666 115.072A255.488 255.488 0 0 0 256 570.154667a256.426667 256.426667 0 0 0 162.730667 238.592 256.853333 256.853333 0 0 0 186.666666-0.128 256.256 256.256 0 0 0 156.032-296.32zM512 180.352c48.170667 0 87.296 39.125333 87.296 87.253333a87.296 87.296 0 0 1-174.592 0c0-48.128 39.168-87.253333 87.296-87.253333z m0 488.789333a98.986667 98.986667 0 0 1 0-197.845333c54.698667 0 98.901333 44.245333 98.901333 98.901333S566.698667 669.141333 512 669.141333z" p-id="24821" data-spm-anchor-id="a313x.search_index.0.i16.7ca93a81E8mMZt" class="selected" fill="#2c2c2c"></path></svg>