<?xml version="1.0" standalone="no"?><!DOCTYPE svg PUBLIC "-//W3C//DTD SVG 1.1//EN" "http://www.w3.org/Graphics/SVG/1.1/DTD/svg11.dtd"><svg t="1722781444670" class="icon" viewBox="0 0 1024 1024" version="1.1" xmlns="http://www.w3.org/2000/svg" p-id="13007" xmlns:xlink="http://www.w3.org/1999/xlink" width="200" height="200"><path d="M539.229091 225.298618C539.229091 139.561891 469.480727 69.818182 383.744 69.818182c-90.354036 0-144.374691 67.746909-144.374691 133.268945h88.845964c0-18.432 17.235782-44.422982 55.528727-44.422982 36.738327 0 66.634473 29.896145 66.634473 66.634473 0 36.738327-26.814836 66.634473-94.440728 66.634473H114.036364v88.855273h241.901381c114.134109 0 183.291345-69.743709 183.291346-155.485091z m0 0C539.229091 139.561891 469.480727 69.818182 383.744 69.818182c-90.354036 0-144.374691 67.746909-144.374691 133.268945h88.845964c0-18.432 17.235782-44.422982 55.528727-44.422982 36.738327 0 66.634473 29.896145 66.634473 66.634473 0 36.738327-26.814836 66.634473-94.440728 66.634473H114.036364v88.855273h241.901381c114.134109 0 183.291345-69.743709 183.291346-155.485091z m197.106036 573.402764c0 85.736727-69.748364 155.480436-155.485091 155.480436-90.354036 0-144.374691-67.746909-144.374691-133.268945h88.845964c0 18.432 17.235782 44.422982 55.528727 44.422982 36.738327 0 66.634473-29.896145 66.634473-66.634473 0-36.738327-33.782691-66.639127-94.440727-66.639127H284.611491v-88.845964h268.432291c114.134109 0 183.291345 69.743709 183.291345 155.485091z m0 0c0 85.736727-69.748364 155.480436-155.485091 155.480436-90.354036 0-144.374691-67.746909-144.374691-133.268945h88.845964c0 18.432 17.235782 44.422982 55.528727 44.422982 36.738327 0 66.634473-29.896145 66.634473-66.634473 0-36.738327-33.782691-66.639127-94.440727-66.639127H284.611491v-88.845964h268.432291c114.134109 0 183.291345 69.743709 183.291345 155.485091z" fill="#42A5F5" p-id="13008"></path><path d="M759.621818 206.894545c-97.9968 0-167.126109 74.523927-167.126109 172.520728H671.185455c0-48.709818 35.374545-84.084364 88.436363-84.084364s79.592727 35.374545 79.592727 84.084364c0 48.714473-34.4576 88.850618-128.232727 88.850618H114.036364v88.845964h610.210909c138.868364 0 203.403636-89.260218 203.403636-177.696582 0-97.9968-66.327273-172.520727-168.029091-172.520728zM230.507055 643.216291H114.036364v89.595345h116.470691v-89.595345z" fill="#42A5F5" p-id="13009"></path></svg>